<svg width="16" height="16" viewBox="0 0 16 16" fill="none" xmlns="http://www.w3.org/2000/svg">
<rect width="16" height="16" rx="2" fill="#001D28"/>
<path fill-rule="evenodd" clip-rule="evenodd" d="M8.00002 2.42406C4.91957 2.42406 2.42406 4.90939 2.42406 7.97313C2.42406 11.0369 4.91957 13.5222 8.00002 13.5222C11.0804 13.5222 13.5759 11.0369 13.5759 7.97313C13.5759 4.90939 11.0804 2.42406 8.00002 2.42406ZM2 7.97313C2 4.67333 4.68723 2 8.00002 2C11.3128 2 14 4.67333 14 7.97313C14 11.2729 11.3128 13.9463 8.00002 13.9463C4.68723 13.9463 2 11.2729 2 7.97313Z" fill="#00C14E"/>
<mask id="mask0_24_13357" style="mask-type:alpha" maskUnits="userSpaceOnUse" x="2" y="5" width="12" height="7">
<path fill-rule="evenodd" clip-rule="evenodd" d="M2.32843 6.89585C2.43699 6.31059 2.63408 5.75636 2.90532 5.2475L13.1092 5.2475C13.5392 6.05417 13.7829 6.97488 13.7829 7.95241C13.7829 9.29619 13.3224 10.5326 12.5505 11.513H3.46405C2.89943 10.7959 2.50146 9.94184 2.32843 9.00898L2.32843 6.89585L2.32843 6.89585Z" fill="white"/>
</mask>
<g mask="url(#mask0_24_13357)">
<path fill-rule="evenodd" clip-rule="evenodd" d="M2.6272 11.5109C2.69424 11.5041 2.75985 11.4812 2.80987 11.4428L4.52385 10.1311C4.59937 10.0734 4.72463 10.0649 4.80322 10.1122L5.52587 10.549C5.57919 10.5811 5.65094 10.5965 5.72516 10.5915C5.79946 10.5867 5.87003 10.5618 5.92162 10.5226L8.19991 8.7885C8.27511 8.73131 8.3999 8.72428 8.47558 8.77304L9.03179 9.13123C9.08558 9.16595 9.15988 9.18274 9.23709 9.1776C9.31438 9.17234 9.3873 9.14582 9.43905 9.10412L13.8459 5.5549C13.9496 5.47134 13.9409 5.35154 13.8266 5.28721C13.7121 5.22284 13.5353 5.23837 13.4316 5.32189L9.35768 8.60303C9.2855 8.66117 9.16126 8.66948 9.08637 8.62112L8.53636 8.26685C8.48355 8.23288 8.41098 8.21601 8.33527 8.22029C8.25979 8.22445 8.18726 8.24951 8.13472 8.28945L5.85058 10.028C5.77474 10.0858 5.64944 10.094 5.57078 10.0466L4.84758 9.60961C4.79402 9.57729 4.7222 9.56203 4.64786 9.56689C4.57371 9.57199 4.50268 9.5969 4.45124 9.63632L2.40603 11.2015C2.29927 11.2832 2.30313 11.4034 2.41475 11.4701C2.47389 11.5054 2.55137 11.5185 2.6272 11.5109Z" fill="#00C14E"/>
</g>
<mask id="mask1_24_13357" style="mask-type:alpha" maskUnits="userSpaceOnUse" x="2" y="4" width="12" height="7">
<path fill-rule="evenodd" clip-rule="evenodd" d="M2.23276 7.83566C2.25939 6.4966 2.74326 5.26948 3.5349 4.30353L12.4795 4.30353C13.2941 5.29748 13.7828 6.56796 13.7828 7.95239C13.7828 8.89443 13.5565 9.78371 13.1552 10.569H2.85913C2.47449 9.81622 2.25063 8.96789 2.23276 8.06913L2.23276 7.83566H2.23276Z" fill="white"/>
</mask>
<g mask="url(#mask1_24_13357)">
<path fill-rule="evenodd" clip-rule="evenodd" d="M2.53153 10.5669C2.59856 10.5602 2.66418 10.5371 2.7142 10.4988L4.42818 9.18708C4.5037 9.12929 4.629 9.12082 4.70758 9.16821L5.4302 9.60493C5.48356 9.63721 5.55526 9.65251 5.62953 9.64753C5.70383 9.6427 5.77439 9.61795 5.82594 9.57861L8.10424 7.84447C8.17948 7.78724 8.30423 7.78018 8.37995 7.82902L8.93616 8.18728C8.98995 8.222 9.06425 8.23871 9.14142 8.23357C9.21875 8.22832 9.29163 8.20184 9.34342 8.16014L13.7503 4.61095C13.854 4.5274 13.8453 4.40759 13.731 4.3433C13.6164 4.27885 13.4396 4.29438 13.3359 4.3779L9.26204 7.65905C9.18987 7.71714 9.06559 7.72542 8.9907 7.67713L8.44073 7.32283C8.38788 7.2889 8.31535 7.27207 8.23963 7.27626C8.16412 7.28046 8.09158 7.30549 8.03905 7.34542L5.75494 9.08402C5.67907 9.14181 5.55377 9.15004 5.47511 9.10254L4.75195 8.66566C4.69839 8.63334 4.62653 8.61796 4.55223 8.62294C4.47804 8.62789 4.407 8.65299 4.35557 8.69234L2.31036 10.2575C2.2036 10.3392 2.20745 10.4594 2.31908 10.526C2.37821 10.5614 2.45574 10.5746 2.53153 10.5669Z" fill="#00C14E"/>
</g>
<mask id="mask2_24_13357" style="mask-type:alpha" maskUnits="userSpaceOnUse" x="2" y="3" width="12" height="7">
<path fill-rule="evenodd" clip-rule="evenodd" d="M4.51483 3.35956C3.12745 4.41273 2.23172 6.07814 2.23172 7.9524C2.23172 8.53407 2.31799 9.09563 2.47845 9.62501H13.5362C13.6214 9.34381 13.6857 9.05353 13.7273 8.75597V7.14884C13.5118 5.60649 12.6853 4.2595 11.4998 3.35956L4.51483 3.35956V3.35956Z" fill="white"/>
</mask>
<g mask="url(#mask2_24_13357)">
<path fill-rule="evenodd" clip-rule="evenodd" d="M2.43611 9.62291C2.50314 9.61616 2.56876 9.59309 2.61877 9.55473L4.33276 8.2432C4.40828 8.18534 4.53354 8.17686 4.61212 8.22433L5.33474 8.66089C5.38809 8.69317 5.4598 8.70843 5.53406 8.70357C5.60836 8.69874 5.67893 8.67387 5.73052 8.63461L8.00881 6.90059C8.08402 6.84332 8.20881 6.83626 8.28448 6.88514L8.8407 7.24325C8.89449 7.278 8.96879 7.29471 9.04599 7.28957C9.12328 7.2844 9.19621 7.25792 9.24795 7.21618L13.6548 3.66699C13.7585 3.58348 13.7498 3.46364 13.6355 3.39923C13.521 3.33489 13.3442 3.35047 13.2405 3.43394L9.16658 6.71513C9.0944 6.77322 8.97016 6.7815 8.89527 6.73321L8.34527 6.37895C8.29242 6.34478 8.21989 6.32807 8.14417 6.33231C8.06865 6.3365 7.99616 6.36153 7.94363 6.4015L5.65948 8.13999C5.58365 8.19777 5.45835 8.20609 5.37968 8.15866L4.65648 7.72163C4.60293 7.68942 4.5311 7.67396 4.45676 7.67903C4.38262 7.68393 4.31158 7.709 4.26011 7.74834L2.21493 9.31352C2.10818 9.39523 2.11203 9.51546 2.22362 9.58203C2.28279 9.61749 2.36027 9.63056 2.43611 9.62291Z" fill="#00C14E"/>
</g>
</svg>
