<svg width="191" height="43" viewBox="0 0 191 43" fill="none" xmlns="http://www.w3.org/2000/svg">
<path d="M52.983 21.4023C52.983 22.4505 53.1301 23.3883 53.4243 24.2158C53.7185 25.0434 54.1415 25.7422 54.6932 26.3122C55.2449 26.9007 55.9069 27.342 56.6793 27.6363C57.4516 27.9489 58.2975 28.096 59.2538 28.096C60.1916 28.096 61.0559 27.9489 61.8283 27.6363C62.6007 27.342 63.2443 26.9007 63.796 26.3122C64.3477 25.7422 64.7706 25.0434 65.0648 24.2158C65.3591 23.3883 65.5246 22.4505 65.5246 21.4023C65.5246 20.3724 65.3591 19.4346 65.0648 18.6071C64.7706 17.7795 64.3477 17.0807 63.796 16.4923C63.2443 15.9222 62.6007 15.4809 61.8283 15.1682C61.0559 14.874 60.1916 14.7085 59.2538 14.7085C58.2975 14.7085 57.4516 14.874 56.6793 15.1682C55.9069 15.4809 55.2449 15.9222 54.6932 16.4923C54.1415 17.0807 53.7185 17.7795 53.4243 18.6071C53.1301 19.4346 52.983 20.3724 52.983 21.4023ZM55.8333 21.4023C55.8333 20.7586 55.8885 20.1702 56.0356 19.6185C56.1827 19.0668 56.385 18.6071 56.6793 18.2209C56.9551 17.8347 57.3045 17.5405 57.7458 17.3198C58.1688 17.0991 58.6653 16.9888 59.2538 16.9888C59.8238 16.9888 60.3204 17.0991 60.7617 17.3198C61.1847 17.5405 61.5341 17.8347 61.8283 18.2209C62.1041 18.6071 62.3064 19.0668 62.4535 19.6185C62.6007 20.1702 62.6742 20.7586 62.6742 21.4023C62.6742 22.0643 62.6007 22.6527 62.4535 23.2044C62.3064 23.7561 62.1041 24.2158 61.8283 24.602C61.5341 24.9882 61.1847 25.2824 60.7617 25.5031C60.3204 25.7238 59.8238 25.8157 59.2538 25.8157C58.6653 25.8157 58.1688 25.7238 57.7458 25.5031C57.3045 25.2824 56.9551 24.9882 56.6793 24.602C56.385 24.2158 56.1827 23.7561 56.0356 23.2044C55.8885 22.6527 55.8333 22.0643 55.8333 21.4023Z" fill="white"/>
<path d="M72.6241 28.096C73.1574 28.096 73.6539 28.0041 74.132 27.7834C74.6101 27.5627 75.0147 27.2685 75.3641 26.8639C75.7135 26.4594 75.9894 25.9812 76.1916 25.4112C76.3939 24.8411 76.5043 24.1975 76.5043 23.4619C76.5043 22.7631 76.3939 22.1194 76.1916 21.5494C75.9894 20.9793 75.7135 20.4828 75.3641 20.0782C75.0147 19.6736 74.6101 19.3794 74.132 19.1587C73.6539 18.9381 73.1574 18.8277 72.6241 18.8277C71.9805 18.8277 71.4104 18.9748 70.9139 19.2507C70.399 19.5265 70.0312 19.8943 69.7921 20.3357V19.0852H67.236V31.5165H69.8841V26.772C70.1047 27.1214 70.4174 27.434 70.8587 27.6914C71.3001 27.9673 71.8885 28.096 72.6241 28.096ZM69.8657 23.7193V23.2228C69.8657 22.8182 69.9208 22.4505 70.0496 22.1562C70.1599 21.862 70.3254 21.6045 70.5277 21.4206C70.7116 21.2367 70.9323 21.0896 71.1713 20.9977C71.4104 20.9241 71.6494 20.869 71.8885 20.869C72.477 20.869 72.9367 21.1264 73.2861 21.6229C73.6171 22.1194 73.801 22.7263 73.801 23.4619C73.801 24.2158 73.6171 24.8411 73.2861 25.3192C72.9367 25.8157 72.477 26.0548 71.8885 26.0548C71.6678 26.0548 71.4288 26.018 71.1897 25.9261C70.9506 25.8525 70.73 25.7054 70.5461 25.5215C70.3438 25.3376 70.1783 25.0801 70.0496 24.7859C69.9208 24.4917 69.8657 24.1423 69.8657 23.7193Z" fill="white"/>
<path d="M85.9573 26.018L83.677 25.0985C83.5299 25.3744 83.346 25.6134 83.0886 25.8341C82.8311 26.0548 82.4633 26.1467 82.0036 26.1467C81.6726 26.1467 81.3784 26.0916 81.1577 25.9812C80.9186 25.8709 80.7347 25.7054 80.5876 25.5215C80.4405 25.3376 80.3486 25.1353 80.2934 24.8962C80.2198 24.6572 80.1831 24.3997 80.1831 24.1423H86.2883V23.4987C86.2883 22.8734 86.1964 22.2666 86.0125 21.6965C85.8286 21.1448 85.5712 20.6483 85.2218 20.2253C84.854 19.8024 84.4126 19.4714 83.8609 19.2139C83.3093 18.9565 82.684 18.8277 81.9484 18.8277C81.2864 18.8277 80.698 18.9381 80.1647 19.1587C79.613 19.3794 79.1532 19.6736 78.7487 20.0598C78.3441 20.4644 78.0499 20.9425 77.8292 21.5126C77.6085 22.1011 77.4982 22.7447 77.4982 23.4435C77.4982 24.1791 77.6085 24.8227 77.8292 25.3928C78.0499 25.9812 78.3441 26.4594 78.7487 26.8639C79.1349 27.2685 79.613 27.5627 80.1647 27.7834C80.7163 28.0041 81.3416 28.096 82.0404 28.096C82.9782 28.096 83.769 27.9121 84.431 27.5443C85.093 27.1765 85.5896 26.68 85.9573 26.018ZM81.9484 20.7035C82.4266 20.7035 82.8127 20.869 83.1254 21.1632C83.438 21.4758 83.6035 21.9355 83.6403 22.5424H80.2014C80.2382 21.9907 80.3853 21.5494 80.6796 21.2184C80.9738 20.8874 81.3968 20.7035 81.9484 20.7035Z" fill="white"/>
<path d="M87.7144 19.0852V27.8386H90.3625V23.3331C90.3625 22.9286 90.3993 22.5792 90.5096 22.2849C90.6016 21.9907 90.7303 21.7517 90.8958 21.5678C91.0429 21.3839 91.2268 21.2367 91.4291 21.1448C91.6314 21.0529 91.8521 20.9977 92.0727 20.9977C92.4405 20.9977 92.7715 21.1264 93.0474 21.3471C93.3048 21.5861 93.4519 22.0091 93.4519 22.5976V27.8386H96.1V21.8068C96.1 21.3287 96.0081 20.8874 95.861 20.5196C95.6954 20.1518 95.4748 19.8392 95.1989 19.5817C94.9047 19.3242 94.5737 19.1404 94.2059 19.0116C93.8381 18.9013 93.4335 18.8277 93.0106 18.8277C92.275 18.8277 91.7049 18.9932 91.2636 19.3059C90.8222 19.6369 90.4912 20.0047 90.2706 20.4276V19.0852H87.7144Z" fill="white"/>
<path d="M101.449 21.4023C101.449 22.4688 101.597 23.4067 101.891 24.2342C102.185 25.0801 102.59 25.7789 103.141 26.349C103.675 26.9191 104.337 27.3604 105.109 27.6547C105.881 27.9489 106.727 28.096 107.683 28.096C109.081 28.096 110.24 27.7834 111.141 27.1582C112.023 26.5329 112.685 25.687 113.127 24.5836L110.479 23.6458C110.24 24.3813 109.89 24.9146 109.449 25.264C109.007 25.6318 108.419 25.7973 107.72 25.7973C107.132 25.7973 106.635 25.687 106.212 25.4663C105.771 25.2457 105.422 24.9514 105.146 24.5469C104.851 24.1607 104.649 23.7009 104.502 23.1676C104.355 22.6343 104.3 22.0459 104.3 21.4023C104.3 20.777 104.355 20.1886 104.502 19.6369C104.649 19.1036 104.851 18.6438 105.146 18.2577C105.422 17.8715 105.771 17.5589 106.194 17.3382C106.617 17.1175 107.113 17.0072 107.702 17.0072C108.474 17.0072 109.081 17.2095 109.522 17.614C109.964 18.0186 110.295 18.5703 110.515 19.2875L113.2 18.3496C112.796 17.1359 112.134 16.2164 111.214 15.6096C110.276 15.0211 109.118 14.7085 107.757 14.7085C106.782 14.7085 105.9 14.874 105.127 15.1682C104.355 15.4625 103.693 15.9038 103.141 16.4739C102.59 17.0623 102.185 17.7611 101.891 18.5887C101.597 19.4162 101.449 20.3541 101.449 21.4023Z" fill="white"/>
<path d="M118.652 18.8277C117.953 18.8277 117.328 18.9381 116.776 19.1587C116.224 19.3794 115.746 19.6736 115.342 20.0782C114.937 20.4828 114.643 20.9609 114.422 21.531C114.202 22.1194 114.091 22.7631 114.091 23.4619C114.091 24.1975 114.202 24.8411 114.422 25.4112C114.643 25.9812 114.937 26.4594 115.342 26.8639C115.746 27.2685 116.224 27.5627 116.776 27.7834C117.328 28.0041 117.953 28.096 118.652 28.096C119.332 28.096 119.957 28.0041 120.527 27.7834C121.079 27.5627 121.557 27.2685 121.962 26.8639C122.366 26.4594 122.679 25.9812 122.9 25.4112C123.12 24.8411 123.231 24.1975 123.231 23.4619C123.231 22.7631 123.12 22.1194 122.9 21.531C122.679 20.9609 122.366 20.4828 121.962 20.0782C121.557 19.6736 121.079 19.3794 120.527 19.1587C119.957 18.9381 119.332 18.8277 118.652 18.8277ZM118.652 26.11C118.321 26.11 118.027 26.0548 117.806 25.9077C117.567 25.7789 117.365 25.595 117.217 25.356C117.07 25.1169 116.96 24.8411 116.886 24.5101C116.813 24.1791 116.776 23.8297 116.776 23.4619C116.776 23.0941 116.813 22.7631 116.886 22.4321C116.96 22.1011 117.07 21.8252 117.217 21.5861C117.365 21.3471 117.567 21.1632 117.806 21.0161C118.027 20.8874 118.321 20.8138 118.652 20.8138C118.983 20.8138 119.259 20.8874 119.498 21.0161C119.737 21.1632 119.939 21.3471 120.086 21.5861C120.233 21.8252 120.362 22.1011 120.436 22.4321C120.509 22.7631 120.546 23.0941 120.546 23.4619C120.546 23.8297 120.509 24.1791 120.436 24.5101C120.362 24.8411 120.233 25.1169 120.086 25.356C119.939 25.595 119.737 25.7789 119.498 25.9077C119.259 26.0548 118.983 26.11 118.652 26.11Z" fill="white"/>
<path d="M124.792 19.0852V27.8386H127.44V23.3331C127.44 22.9286 127.477 22.5792 127.569 22.2849C127.643 21.9907 127.771 21.7517 127.919 21.5678C128.066 21.3839 128.231 21.2367 128.415 21.1448C128.599 21.0529 128.801 20.9977 129.003 20.9977C129.335 20.9977 129.61 21.1264 129.868 21.3471C130.107 21.5861 130.236 22.0091 130.236 22.5976V27.8386H132.884V23.3331C132.884 22.524 133.031 21.9172 133.362 21.5494C133.674 21.1816 134.042 20.9977 134.465 20.9977C134.796 20.9977 135.072 21.1264 135.311 21.3471C135.55 21.5861 135.679 21.9907 135.679 22.5792V27.8386H138.327V21.7884C138.327 21.3103 138.235 20.869 138.088 20.5012C137.941 20.1334 137.72 19.8392 137.463 19.5817C137.187 19.3242 136.874 19.1404 136.525 19.0116C136.175 18.9013 135.808 18.8277 135.403 18.8277C134.741 18.8277 134.171 18.9932 133.693 19.3059C133.215 19.6369 132.865 19.9863 132.608 20.3541C132.35 19.8759 132.001 19.4898 131.541 19.2323C131.082 18.9748 130.548 18.8277 129.941 18.8277C129.279 18.8277 128.728 18.9932 128.305 19.3059C127.863 19.6185 127.551 19.9863 127.348 20.4092V19.0852H124.792Z" fill="white"/>
<path d="M140.365 19.0852V27.8386H143.013V23.3331C143.013 22.9286 143.05 22.5792 143.142 22.2849C143.216 21.9907 143.344 21.7517 143.491 21.5678C143.639 21.3839 143.804 21.2367 143.988 21.1448C144.172 21.0529 144.374 20.9977 144.576 20.9977C144.907 20.9977 145.183 21.1264 145.441 21.3471C145.68 21.5861 145.808 22.0091 145.808 22.5976V27.8386H148.457V23.3331C148.457 22.524 148.604 21.9172 148.935 21.5494C149.247 21.1816 149.615 20.9977 150.038 20.9977C150.369 20.9977 150.645 21.1264 150.884 21.3471C151.123 21.5861 151.252 21.9907 151.252 22.5792V27.8386H153.9V21.7884C153.9 21.3103 153.808 20.869 153.661 20.5012C153.514 20.1334 153.293 19.8392 153.036 19.5817C152.76 19.3242 152.447 19.1404 152.098 19.0116C151.748 18.9013 151.38 18.8277 150.976 18.8277C150.314 18.8277 149.744 18.9932 149.266 19.3059C148.788 19.6369 148.438 19.9863 148.181 20.3541C147.923 19.8759 147.574 19.4898 147.114 19.2323C146.654 18.9748 146.121 18.8277 145.514 18.8277C144.852 18.8277 144.301 18.9932 143.878 19.3059C143.436 19.6185 143.124 19.9863 142.921 20.4092V19.0852H140.365Z" fill="white"/>
<path d="M163.846 26.018L161.565 25.0985C161.418 25.3744 161.234 25.6134 160.977 25.8341C160.719 26.0548 160.352 26.1467 159.892 26.1467C159.561 26.1467 159.267 26.0916 159.046 25.9812C158.807 25.8709 158.623 25.7054 158.476 25.5215C158.329 25.3376 158.237 25.1353 158.182 24.8962C158.108 24.6572 158.071 24.3997 158.071 24.1423H164.177V23.4987C164.177 22.8734 164.085 22.2666 163.901 21.6965C163.717 21.1448 163.459 20.6483 163.11 20.2253C162.742 19.8024 162.301 19.4714 161.749 19.2139C161.197 18.9565 160.572 18.8277 159.837 18.8277C159.175 18.8277 158.586 18.9381 158.053 19.1587C157.501 19.3794 157.041 19.6736 156.637 20.0598C156.232 20.4644 155.938 20.9425 155.717 21.5126C155.497 22.1011 155.386 22.7447 155.386 23.4435C155.386 24.1791 155.497 24.8227 155.717 25.3928C155.938 25.9812 156.232 26.4594 156.637 26.8639C157.023 27.2685 157.501 27.5627 158.053 27.7834C158.605 28.0041 159.23 28.096 159.929 28.096C160.866 28.096 161.657 27.9121 162.319 27.5443C162.981 27.1765 163.478 26.68 163.846 26.018ZM159.837 20.7035C160.315 20.7035 160.701 20.869 161.014 21.1632C161.326 21.4758 161.492 21.9355 161.528 22.5424H158.09C158.126 21.9907 158.274 21.5494 158.568 21.2184C158.862 20.8874 159.285 20.7035 159.837 20.7035Z" fill="white"/>
<path d="M171.359 21.4574L171.837 19.03C171.634 18.9565 171.432 18.9013 171.248 18.8645C171.064 18.8461 170.88 18.8277 170.715 18.8277C170.053 18.8277 169.52 18.9748 169.115 19.2507C168.692 19.5449 168.343 19.9679 168.085 20.5563V19.0852H165.603V27.8386H168.251V23.7561C168.251 23.2596 168.306 22.8366 168.453 22.5056C168.582 22.1746 168.747 21.9172 168.95 21.7149C169.152 21.5126 169.372 21.3655 169.63 21.2919C169.869 21.2184 170.09 21.1632 170.31 21.1632C170.476 21.1632 170.66 21.2 170.844 21.2367C171.028 21.2735 171.211 21.3471 171.359 21.4574Z" fill="white"/>
<path d="M172.129 23.4619C172.129 24.1975 172.24 24.8595 172.46 25.4295C172.681 25.9996 172.975 26.4777 173.38 26.8823C173.766 27.2869 174.244 27.5811 174.796 27.7834C175.348 28.0041 175.973 28.096 176.635 28.096C177.15 28.096 177.628 28.0408 178.032 27.9121C178.437 27.7834 178.786 27.6179 179.099 27.3972C179.412 27.1765 179.688 26.9375 179.908 26.6432C180.129 26.349 180.35 26.0548 180.533 25.7238L178.088 24.8043C177.941 25.1721 177.757 25.4847 177.536 25.7054C177.315 25.9261 177.003 26.0364 176.598 26.0364C176.249 26.0364 175.954 25.9628 175.734 25.8157C175.513 25.6686 175.329 25.4663 175.201 25.2089C175.053 24.9514 174.961 24.6756 174.906 24.363C174.851 24.0687 174.833 23.7561 174.833 23.4619C174.833 23.1493 174.851 22.8366 174.925 22.524C174.98 22.2298 175.072 21.9539 175.219 21.6965C175.348 21.4574 175.532 21.2551 175.752 21.108C175.973 20.9609 176.249 20.869 176.58 20.869C176.966 20.869 177.297 20.9977 177.554 21.2184C177.812 21.439 177.996 21.7884 178.106 22.2298L180.497 21.3471C180.35 20.9977 180.166 20.6667 179.945 20.3541C179.724 20.0598 179.467 19.784 179.173 19.5633C178.878 19.3426 178.511 19.1587 178.106 19.03C177.701 18.9013 177.223 18.8277 176.69 18.8277C175.991 18.8277 175.366 18.9381 174.814 19.1587C174.263 19.3794 173.785 19.6736 173.38 20.0782C172.975 20.4828 172.681 20.9609 172.46 21.531C172.24 22.1194 172.129 22.7631 172.129 23.4619Z" fill="white"/>
<path d="M189.804 26.018L187.524 25.0985C187.377 25.3744 187.193 25.6134 186.935 25.8341C186.678 26.0548 186.31 26.1467 185.85 26.1467C185.519 26.1467 185.225 26.0916 185.005 25.9812C184.766 25.8709 184.582 25.7054 184.435 25.5215C184.287 25.3376 184.195 25.1353 184.14 24.8962C184.067 24.6572 184.03 24.3997 184.03 24.1423H190.135V23.4987C190.135 22.8734 190.043 22.2666 189.859 21.6965C189.676 21.1448 189.418 20.6483 189.069 20.2253C188.701 19.8024 188.26 19.4714 187.708 19.2139C187.156 18.9565 186.531 18.8277 185.795 18.8277C185.133 18.8277 184.545 18.9381 184.012 19.1587C183.46 19.3794 183 19.6736 182.596 20.0598C182.191 20.4644 181.897 20.9425 181.676 21.5126C181.455 22.1011 181.345 22.7447 181.345 23.4435C181.345 24.1791 181.455 24.8227 181.676 25.3928C181.897 25.9812 182.191 26.4594 182.596 26.8639C182.982 27.2685 183.46 27.5627 184.012 27.7834C184.563 28.0041 185.188 28.096 185.887 28.096C186.825 28.096 187.616 27.9121 188.278 27.5443C188.94 27.1765 189.436 26.68 189.804 26.018ZM185.795 20.7035C186.273 20.7035 186.66 20.869 186.972 21.1632C187.285 21.4758 187.45 21.9355 187.487 22.5424H184.048C184.085 21.9907 184.232 21.5494 184.526 21.2184C184.821 20.8874 185.244 20.7035 185.795 20.7035Z" fill="white"/>
<path fill-rule="evenodd" clip-rule="evenodd" d="M41.7018 21.2564C41.7018 32.4438 32.5904 41.5129 21.351 41.5129C10.1114 41.5129 1 32.4438 1 21.2564C1 10.0691 10.1114 1 21.351 1C32.5904 1 41.7018 10.0691 41.7018 21.2564Z" stroke="white" stroke-width="2"/>
<mask id="mask0_31_12507" style="mask-type:alpha" maskUnits="userSpaceOnUse" x="1" y="11" width="41" height="23">
<path fill-rule="evenodd" clip-rule="evenodd" d="M1.40924 17.4686C1.79094 15.4108 2.48393 13.462 3.43761 11.6729L39.3153 11.6729C40.8272 14.5092 41.6838 17.7465 41.6838 21.1835C41.6838 25.9083 40.065 30.2557 37.3508 33.7028H5.40214C3.41691 31.1814 2.01764 28.1785 1.40924 24.8985L1.40924 17.4686L1.40924 17.4686Z" fill="white"/>
</mask>
<g mask="url(#mask0_31_12507)">
<path fill-rule="evenodd" clip-rule="evenodd" d="M2.45975 33.6954C2.69544 33.6717 2.92615 33.5908 3.10202 33.4559L9.12851 28.844C9.39404 28.6409 9.83447 28.6111 10.1108 28.7776L12.6517 30.3132C12.8391 30.4263 13.0914 30.4802 13.3524 30.4628C13.6136 30.4458 13.8618 30.3584 14.0431 30.2205L22.0538 24.1233C22.3182 23.9222 22.757 23.8975 23.0231 24.0689L24.9787 25.3283C25.1679 25.4504 25.4291 25.5094 25.7006 25.4914C25.9723 25.4729 26.2288 25.3796 26.4107 25.233L41.9056 12.7537C42.2702 12.4599 42.2395 12.0387 41.8376 11.8125C41.4351 11.5861 40.8134 11.6408 40.4488 11.9344L26.1246 23.4712C25.8708 23.6756 25.434 23.7048 25.1706 23.5347L23.2368 22.2891C23.0511 22.1697 22.7959 22.1104 22.5297 22.1254C22.2643 22.14 22.0093 22.2282 21.8246 22.3686L13.7934 28.4815C13.5267 28.6846 13.0862 28.7135 12.8096 28.5467L10.2667 27.0104C10.0784 26.8967 9.8259 26.843 9.56452 26.8602C9.30383 26.8781 9.05405 26.9657 8.8732 27.1043L1.68209 32.6077C1.30673 32.8949 1.32027 33.3175 1.71276 33.5519C1.92068 33.6762 2.19311 33.7223 2.45975 33.6954Z" fill="white"/>
</g>
<mask id="mask1_31_12507" style="mask-type:alpha" maskUnits="userSpaceOnUse" x="1" y="8" width="41" height="23">
<path fill-rule="evenodd" clip-rule="evenodd" d="M1.07318 20.773C1.16683 16.0648 2.86816 11.7501 5.65161 8.35376L37.1014 8.35376C39.9655 11.8486 41.6839 16.3157 41.6839 21.1834C41.6839 24.4957 40.8883 27.6225 39.4774 30.3836H3.27554C1.92313 27.7368 1.13604 24.754 1.07318 21.5939L1.07318 20.773H1.07318Z" fill="white"/>
</mask>
<g mask="url(#mask1_31_12507)">
<path fill-rule="evenodd" clip-rule="evenodd" d="M2.12369 30.3762C2.35938 30.3525 2.59009 30.2714 2.76596 30.1367L8.79245 25.5247C9.05798 25.3215 9.49855 25.2917 9.77485 25.4583L12.3156 26.9939C12.5032 27.1074 12.7554 27.1612 13.0165 27.1437C13.2777 27.1267 13.5258 27.0397 13.7071 26.9013L21.7177 20.804C21.9823 20.6028 22.4209 20.5779 22.6871 20.7496L24.6428 22.0093C24.832 22.1314 25.0932 22.1901 25.3645 22.1721C25.6364 22.1536 25.8927 22.0605 26.0748 21.9139L41.5697 9.43468C41.9343 9.1409 41.9036 8.71967 41.5017 8.49361C41.099 8.26699 40.4773 8.32161 40.1127 8.61526L25.7887 20.152C25.5349 20.3563 25.0979 20.3854 24.8346 20.2156L22.9009 18.9698C22.715 18.8505 22.46 18.7914 22.1938 18.8061C21.9283 18.8209 21.6732 18.9089 21.4885 19.0493L13.4574 25.1623C13.1907 25.3655 12.7501 25.3945 12.4735 25.2274L9.93083 23.6913C9.74252 23.5777 9.48984 23.5236 9.2286 23.5411C8.96776 23.5585 8.71799 23.6468 8.53714 23.7851L1.34603 29.2883C0.970669 29.5757 0.984208 29.9983 1.3767 30.2325C1.58462 30.3569 1.85719 30.4031 2.12369 30.3762Z" fill="white"/>
</g>
<mask id="mask2_31_12507" style="mask-type:alpha" maskUnits="userSpaceOnUse" x="1" y="5" width="41" height="23">
<path fill-rule="evenodd" clip-rule="evenodd" d="M9.09667 5.03467C4.21854 8.73768 1.06909 14.5934 1.06909 21.1834C1.06909 23.2286 1.37243 25.2031 1.93663 27.0645H40.8163C41.116 26.0757 41.3421 25.0551 41.4882 24.0089V18.3581C40.7308 12.935 37.8247 8.19892 33.6563 5.03467L9.09667 5.03467V5.03467Z" fill="white"/>
</mask>
<g mask="url(#mask2_31_12507)">
<path fill-rule="evenodd" clip-rule="evenodd" d="M1.78777 27.0571C2.02346 27.0333 2.25417 26.9522 2.43004 26.8173L8.45653 22.2059C8.72206 22.0025 9.16249 21.9727 9.43879 22.1395L11.9796 23.6745C12.1672 23.7881 12.4193 23.8417 12.6804 23.8246C12.9416 23.8076 13.1898 23.7202 13.3712 23.5821L21.3818 17.4852C21.6462 17.2838 22.085 17.259 22.3511 17.4309L24.3068 18.69C24.4959 18.8122 24.7571 18.871 25.0286 18.8529C25.3004 18.8347 25.5568 18.7416 25.7387 18.5948L41.2336 6.11563C41.5982 5.82198 41.5675 5.40062 41.1656 5.17414C40.7631 4.94794 40.1414 5.0027 39.7768 5.29621L25.4526 16.8331C25.1988 17.0374 24.762 17.0665 24.4987 16.8967L22.5648 15.6511C22.379 15.5309 22.124 15.4722 21.8577 15.4871C21.5922 15.5018 21.3373 15.5898 21.1526 15.7304L13.1214 21.843C12.8548 22.0462 12.4142 22.0754 12.1376 21.9087L9.59477 20.372C9.40646 20.2588 9.15392 20.2044 8.89254 20.2222C8.63184 20.2395 8.38206 20.3276 8.20108 20.4659L1.01011 25.9692C0.634747 26.2565 0.648286 26.6793 1.04064 26.9133C1.2487 27.038 1.52113 27.084 1.78777 27.0571Z" fill="white"/>
</g>
</svg>
