<svg width="43" height="43" viewBox="0 0 43 43" fill="none" xmlns="http://www.w3.org/2000/svg">
<path fill-rule="evenodd" clip-rule="evenodd" d="M41.7018 21.2564C41.7018 32.4438 32.5904 41.5129 21.351 41.5129C10.1114 41.5129 1 32.4438 1 21.2564C1 10.0691 10.1114 1 21.351 1C32.5904 1 41.7018 10.0691 41.7018 21.2564Z" stroke="black" stroke-width="2"/>
<mask id="mask0_7_11228" style="mask-type:alpha" maskUnits="userSpaceOnUse" x="1" y="11" width="41" height="23">
<path fill-rule="evenodd" clip-rule="evenodd" d="M1.4093 17.4686C1.791 15.4108 2.48399 13.462 3.43767 11.6729L39.3154 11.6729C40.8272 14.5092 41.6839 17.7465 41.6839 21.1835C41.6839 25.9083 40.065 30.2557 37.3509 33.7028H5.40221C3.41697 31.1814 2.0177 28.1785 1.4093 24.8985L1.4093 17.4686L1.4093 17.4686Z" fill="white"/>
</mask>
<g mask="url(#mask0_7_11228)">
<path fill-rule="evenodd" clip-rule="evenodd" d="M2.45981 33.6954C2.6955 33.6717 2.92621 33.5908 3.10208 33.4559L9.12857 28.844C9.3941 28.6409 9.83453 28.6111 10.1108 28.7776L12.6517 30.3132C12.8392 30.4263 13.0915 30.4802 13.3524 30.4628C13.6137 30.4458 13.8618 30.3584 14.0432 30.2205L22.0538 24.1233C22.3183 23.9222 22.757 23.8975 23.0231 24.0689L24.9788 25.3283C25.1679 25.4504 25.4292 25.5094 25.7007 25.4914C25.9724 25.4729 26.2288 25.3796 26.4108 25.233L41.9057 12.7537C42.2703 12.4599 42.2396 12.0387 41.8377 11.8125C41.4351 11.5861 40.8134 11.6408 40.4488 11.9344L26.1246 23.4712C25.8709 23.6756 25.434 23.7048 25.1707 23.5347L23.2368 22.2891C23.0512 22.1697 22.796 22.1104 22.5298 22.1254C22.2644 22.14 22.0094 22.2282 21.8246 22.3686L13.7934 28.4815C13.5268 28.6846 13.0862 28.7135 12.8096 28.5467L10.2668 27.0104C10.0785 26.8967 9.82596 26.843 9.56458 26.8602C9.30389 26.8781 9.05411 26.9657 8.87326 27.1043L1.68215 32.6077C1.30679 32.8949 1.32033 33.3175 1.71282 33.5519C1.92074 33.6762 2.19318 33.7223 2.45981 33.6954Z" fill="black"/>
</g>
<mask id="mask1_7_11228" style="mask-type:alpha" maskUnits="userSpaceOnUse" x="1" y="8" width="41" height="23">
<path fill-rule="evenodd" clip-rule="evenodd" d="M1.07312 20.773C1.16677 16.0648 2.8681 11.7501 5.65155 8.35376L37.1013 8.35376C39.9655 11.8486 41.6838 16.3157 41.6838 21.1834C41.6838 24.4957 40.8882 27.6225 39.4774 30.3836H3.27548C1.92307 27.7368 1.13598 24.754 1.07312 21.5939L1.07312 20.773H1.07312Z" fill="white"/>
</mask>
<g mask="url(#mask1_7_11228)">
<path fill-rule="evenodd" clip-rule="evenodd" d="M2.12363 30.3762C2.35932 30.3525 2.59003 30.2714 2.7659 30.1367L8.79239 25.5247C9.05792 25.3215 9.49849 25.2917 9.77479 25.4583L12.3156 26.9939C12.5032 27.1074 12.7553 27.1612 13.0164 27.1437C13.2776 27.1267 13.5258 27.0397 13.707 26.9013L21.7177 20.804C21.9822 20.6028 22.4209 20.5779 22.6871 20.7496L24.6428 22.0093C24.8319 22.1314 25.0931 22.1901 25.3645 22.1721C25.6364 22.1536 25.8926 22.0605 26.0747 21.9139L41.5696 9.43468C41.9342 9.1409 41.9035 8.71967 41.5017 8.49361C41.0989 8.26699 40.4772 8.32161 40.1127 8.61526L25.7886 20.152C25.5348 20.3563 25.0978 20.3854 24.8345 20.2156L22.9008 18.9698C22.715 18.8505 22.46 18.7914 22.1937 18.8061C21.9282 18.8209 21.6732 18.9089 21.4885 19.0493L13.4574 25.1623C13.1906 25.3655 12.75 25.3945 12.4735 25.2274L9.93077 23.6913C9.74246 23.5777 9.48978 23.5236 9.22854 23.5411C8.9677 23.5585 8.71792 23.6468 8.53708 23.7851L1.34597 29.2883C0.970608 29.5757 0.984147 29.9983 1.37664 30.2325C1.58456 30.3569 1.85713 30.4031 2.12363 30.3762Z" fill="black"/>
</g>
<mask id="mask2_7_11228" style="mask-type:alpha" maskUnits="userSpaceOnUse" x="1" y="5" width="41" height="23">
<path fill-rule="evenodd" clip-rule="evenodd" d="M9.09667 5.03467C4.21854 8.73768 1.06909 14.5934 1.06909 21.1834C1.06909 23.2286 1.37243 25.2031 1.93663 27.0645H40.8163C41.116 26.0757 41.3421 25.0551 41.4882 24.0089V18.3581C40.7308 12.935 37.8247 8.19892 33.6563 5.03467L9.09667 5.03467V5.03467Z" fill="white"/>
</mask>
<g mask="url(#mask2_7_11228)">
<path fill-rule="evenodd" clip-rule="evenodd" d="M1.78771 27.0571C2.0234 27.0333 2.25411 26.9522 2.42998 26.8173L8.45647 22.2059C8.722 22.0025 9.16243 21.9727 9.43873 22.1395L11.9795 23.6745C12.1671 23.7881 12.4192 23.8417 12.6803 23.8246C12.9416 23.8076 13.1897 23.7202 13.3711 23.5821L21.3817 17.4852C21.6462 17.2838 22.0849 17.259 22.351 17.4309L24.3067 18.69C24.4958 18.8122 24.7571 18.871 25.0285 18.8529C25.3003 18.8347 25.5567 18.7416 25.7387 18.5948L41.2336 6.11563C41.5981 5.82198 41.5675 5.40062 41.1656 5.17414C40.763 4.94794 40.1413 5.0027 39.7767 5.29621L25.4525 16.8331C25.1988 17.0374 24.7619 17.0665 24.4986 16.8967L22.5647 15.6511C22.3789 15.5309 22.1239 15.4722 21.8577 15.4871C21.5921 15.5018 21.3373 15.5898 21.1525 15.7304L13.1213 21.843C12.8547 22.0462 12.4141 22.0754 12.1375 21.9087L9.5947 20.372C9.4064 20.2588 9.15386 20.2044 8.89248 20.2222C8.63178 20.2395 8.382 20.3276 8.20102 20.4659L1.01005 25.9692C0.634686 26.2565 0.648225 26.6793 1.04058 26.9133C1.24864 27.038 1.52107 27.084 1.78771 27.0571Z" fill="black"/>
</g>
</svg>
