<svg width="43" height="43" viewBox="0 0 43 43" fill="none" xmlns="http://www.w3.org/2000/svg">
<path fill-rule="evenodd" clip-rule="evenodd" d="M41.7018 21.2564C41.7018 32.4438 32.5904 41.5129 21.351 41.5129C10.1114 41.5129 1 32.4438 1 21.2564C1 10.0691 10.1114 1 21.351 1C32.5904 1 41.7018 10.0691 41.7018 21.2564Z" stroke="white" stroke-width="2"/>
<mask id="mask0_31_12510" style="mask-type:alpha" maskUnits="userSpaceOnUse" x="1" y="11" width="41" height="23">
<path fill-rule="evenodd" clip-rule="evenodd" d="M1.40924 17.4686C1.79094 15.4108 2.48393 13.462 3.43761 11.6729L39.3153 11.6729C40.8272 14.5092 41.6838 17.7465 41.6838 21.1835C41.6838 25.9083 40.065 30.2557 37.3508 33.7028H5.40214C3.41691 31.1814 2.01764 28.1785 1.40924 24.8985L1.40924 17.4686L1.40924 17.4686Z" fill="white"/>
</mask>
<g mask="url(#mask0_31_12510)">
<path fill-rule="evenodd" clip-rule="evenodd" d="M2.45975 33.6954C2.69544 33.6717 2.92615 33.5908 3.10202 33.4559L9.12851 28.844C9.39404 28.6409 9.83447 28.6111 10.1108 28.7776L12.6517 30.3132C12.8391 30.4263 13.0914 30.4802 13.3524 30.4628C13.6136 30.4458 13.8618 30.3584 14.0431 30.2205L22.0538 24.1233C22.3182 23.9222 22.757 23.8975 23.0231 24.0689L24.9787 25.3283C25.1679 25.4504 25.4291 25.5094 25.7006 25.4914C25.9723 25.4729 26.2288 25.3796 26.4107 25.233L41.9056 12.7537C42.2702 12.4599 42.2395 12.0387 41.8376 11.8125C41.4351 11.5861 40.8134 11.6408 40.4488 11.9344L26.1246 23.4712C25.8708 23.6756 25.434 23.7048 25.1706 23.5347L23.2368 22.2891C23.0511 22.1697 22.7959 22.1104 22.5297 22.1254C22.2643 22.14 22.0093 22.2282 21.8246 22.3686L13.7934 28.4815C13.5267 28.6846 13.0862 28.7135 12.8096 28.5467L10.2667 27.0104C10.0784 26.8967 9.8259 26.843 9.56452 26.8602C9.30383 26.8781 9.05405 26.9657 8.8732 27.1043L1.68209 32.6077C1.30673 32.8949 1.32027 33.3175 1.71276 33.5519C1.92068 33.6762 2.19311 33.7223 2.45975 33.6954Z" fill="white"/>
</g>
<mask id="mask1_31_12510" style="mask-type:alpha" maskUnits="userSpaceOnUse" x="1" y="8" width="41" height="23">
<path fill-rule="evenodd" clip-rule="evenodd" d="M1.07318 20.773C1.16683 16.0648 2.86816 11.7501 5.65161 8.35376L37.1014 8.35376C39.9655 11.8486 41.6839 16.3157 41.6839 21.1834C41.6839 24.4957 40.8883 27.6225 39.4774 30.3836H3.27554C1.92313 27.7368 1.13604 24.754 1.07318 21.5939L1.07318 20.773H1.07318Z" fill="white"/>
</mask>
<g mask="url(#mask1_31_12510)">
<path fill-rule="evenodd" clip-rule="evenodd" d="M2.12369 30.3762C2.35938 30.3525 2.59009 30.2714 2.76596 30.1367L8.79245 25.5247C9.05798 25.3215 9.49855 25.2917 9.77485 25.4583L12.3156 26.9939C12.5032 27.1074 12.7554 27.1612 13.0165 27.1437C13.2777 27.1267 13.5258 27.0397 13.7071 26.9013L21.7177 20.804C21.9823 20.6028 22.4209 20.5779 22.6871 20.7496L24.6428 22.0093C24.832 22.1314 25.0932 22.1901 25.3645 22.1721C25.6364 22.1536 25.8927 22.0605 26.0748 21.9139L41.5697 9.43468C41.9343 9.1409 41.9036 8.71967 41.5017 8.49361C41.099 8.26699 40.4773 8.32161 40.1127 8.61526L25.7887 20.152C25.5349 20.3563 25.0979 20.3854 24.8346 20.2156L22.9009 18.9698C22.715 18.8505 22.46 18.7914 22.1938 18.8061C21.9283 18.8209 21.6732 18.9089 21.4885 19.0493L13.4574 25.1623C13.1907 25.3655 12.7501 25.3945 12.4735 25.2274L9.93083 23.6913C9.74252 23.5777 9.48984 23.5236 9.2286 23.5411C8.96776 23.5585 8.71799 23.6468 8.53714 23.7851L1.34603 29.2883C0.970669 29.5757 0.984208 29.9983 1.3767 30.2325C1.58462 30.3569 1.85719 30.4031 2.12369 30.3762Z" fill="white"/>
</g>
<mask id="mask2_31_12510" style="mask-type:alpha" maskUnits="userSpaceOnUse" x="1" y="5" width="41" height="23">
<path fill-rule="evenodd" clip-rule="evenodd" d="M9.09667 5.03467C4.21854 8.73768 1.06909 14.5934 1.06909 21.1834C1.06909 23.2286 1.37243 25.2031 1.93663 27.0645H40.8163C41.116 26.0757 41.3421 25.0551 41.4882 24.0089V18.3581C40.7308 12.935 37.8247 8.19892 33.6563 5.03467L9.09667 5.03467V5.03467Z" fill="white"/>
</mask>
<g mask="url(#mask2_31_12510)">
<path fill-rule="evenodd" clip-rule="evenodd" d="M1.78777 27.0571C2.02346 27.0333 2.25417 26.9522 2.43004 26.8173L8.45653 22.2059C8.72206 22.0025 9.16249 21.9727 9.43879 22.1395L11.9796 23.6745C12.1672 23.7881 12.4193 23.8417 12.6804 23.8246C12.9416 23.8076 13.1898 23.7202 13.3712 23.5821L21.3818 17.4852C21.6462 17.2838 22.085 17.259 22.3511 17.4309L24.3068 18.69C24.4959 18.8122 24.7571 18.871 25.0286 18.8529C25.3004 18.8347 25.5568 18.7416 25.7387 18.5948L41.2336 6.11563C41.5982 5.82198 41.5675 5.40062 41.1656 5.17414C40.7631 4.94794 40.1414 5.0027 39.7768 5.29621L25.4526 16.8331C25.1988 17.0374 24.762 17.0665 24.4987 16.8967L22.5648 15.6511C22.379 15.5309 22.124 15.4722 21.8577 15.4871C21.5922 15.5018 21.3373 15.5898 21.1526 15.7304L13.1214 21.843C12.8548 22.0462 12.4142 22.0754 12.1376 21.9087L9.59477 20.372C9.40646 20.2588 9.15392 20.2044 8.89254 20.2222C8.63184 20.2395 8.38206 20.3276 8.20108 20.4659L1.01011 25.9692C0.634747 26.2565 0.648286 26.6793 1.04064 26.9133C1.2487 27.038 1.52113 27.084 1.78777 27.0571Z" fill="white"/>
</g>
</svg>
